General                          : ChattChitto RG - Movies [R2L]
==========
Complete name                    : Tron 1982 720p BRRip H264 [ChattChitto RG]
Format                           : MPEG-4
Format profile                   : Base Media
Codec ID                         : isom
File size                        : 1.85 GiB
Duration                         : 1h 35mn
Overall bit rate                 : 2 762 Kbps
Encoded date                     : UTC 2011-03-28 19:07:43

Video
==========
ID                               : 1
Format                           : AVC
Format/Info                      : Advanced Video Codec
Format profile                   : High@L4.1
Format settings, CABAC           : Yes
Format settings, ReFrames        : 4 frames
Codec ID                         : avc1
Codec ID/Info                    : Advanced Video Coding
Duration                         : 1h 35mn
Bit rate mode                    : Variable
Bit rate                         : 2 400 Kbps
Maximum bit rate                 : 16.5 Mbps
Width                            : 1 280 pixels
Height                           : 576 pixels
Display aspect ratio             : 2.222
Frame rate mode                  : Constant
Frame rate                       : 23.976 fps
Color space                      : YUV
Chroma subsampling               : 4:2:0
Bit depth                        : 8 bits
Scan type                        : Progressive
Bits/(Pixel*Frame)               : 0.136
Stream size                      : 1.60 GiB (87%)
Writing library                  : x264 core 107 r1745 4785e8e
Encoded date                     : UTC 2011-03-29 18:43:02

Audio
==========
ID                               : 2
Format                           : AAC
Format/Info                      : Advanced Audio Codec
Format profile                   : LC
Codec ID                         : 40
Duration                         : 1h 35mn
Bit rate mode                    : Variable
Bit rate                         : 352.8 Kbps
Maximum bit rate                 : 465 Kbps
Channel(s)                       : 6 channels
Channel positions                : Front: L C R, Side: L R, LFE
Sampling rate                    : 48.0 KHz
Compression mode                 : Lossy
Stream size                      : 246 MiB (13%)
Encoded date                     : UTC 2011-03-28 19:08:03

Subtitles                        : English


----------------------------------------------------
IMDB Link: http://www.imdb.com/title/tt0084827/
----------------------------------------------------



Screen Shots:
==============    
http://chattchitto.net/chattchittorg/movies/brrip/2011/tron/1.png 
http://chattchitto.net/chattchittorg/movies/brrip/2011/tron/2.png 
http://chattchitto.net/chattchittorg/movies/brrip/2011/tron/3.png 
http://chattchitto.net/chattchittorg/movies/brrip/2011/tron/4.png 
http://chattchitto.net/chattchittorg/movies/brrip/2011/tron/5.png 
http://chattchitto.net/chattchittorg/movies/brrip/2011/tron/6.png 
http://chattchitto.net/chattchittorg/movies/brrip/2011/tron/7.png



ScreenShots Comparison:
=========================  
http://screenshotcomparison.com/comparison/40789



Plot:
======
A hacker is literally abducted into the world of a computer and forced to participate in gladiatorial games where his only chance of escape is with the help of a heroic security program.



Release Info:
==============
original name .... : Tron 1982 720p BRRip H264 [ChattChitto RG]
ripper.............: SANTi
encoder............: Recalled2Life (R2L)
video codec........: H264/.MP4
video bitrate......: 2400
audio codec........: AAC-LC
aspect ratio.......: 2.222
resolution.........: 1280 x 576
genre..............: Action | Adventure | Sci-Fi
runtime............: 1h 35mn
language...........: English
rating.............: PG
subtitles..........: English
sample.............: Yes
2ch Audio..........: 2ch Audio for XBox Viewers
Compatibility .....: XBox | PS3 | WD Live



Source:
========
Tron 1982 720p BluRay DTS x264-SANTi  THANKS!



Notes:
=======
ChattChitto RG Encourages Burning this Film with ConvertXtoDVD and Playing with VLC media player.
XBox 360 | PS3 | WD Live - Compatible 
Enhanced for your viewing pleasure ;)